<?xml version="1.0" ?><!DOCTYPE svg  PUBLIC '-//W3C//DTD SVG 1.1//EN'  'http://www.w3.org/Graphics/SVG/1.1/DTD/svg11.dtd'><svg enable-background="new 0 0 24 24" height="24px" id="Layer_1" version="1.1" viewBox="0 0 24 24" width="24px" xml:space="preserve" xmlns="http://www.w3.org/2000/svg" xmlns:xlink="http://www.w3.org/1999/xlink"><path d="M17.7,12l6-6c0.4-0.4,0.4-1,0-1.4l-4.2-4.2c-0.4-0.4-1-0.4-1.4,0l-6,6l-6-6c-0.4-0.4-1-0.4-1.4,0L0.4,4.6  c-0.4,0.4-0.4,1,0,1.4l6,6l-6,6c-0.4,0.4-0.4,1,0,1.4l4.2,4.2c0.4,0.4,1,0.4,1.4,0l6-6l6,6c0.4,0.4,1,0.4,1.4,0l4.2-4.2  c0.4-0.4,0.4-1,0-1.4L17.7,12z M18.7,21.5L12,14.8l-6.7,6.7l-2.8-2.8L9.2,12L2.5,5.3l2.8-2.8L12,9.2l6.7-6.7l2.8,2.8L14.8,12  l6.7,6.7L18.7,21.5z"/></svg>